<?xml version="1.0" standalone="no"?>
<!DOCTYPE svg PUBLIC "-//W3C//DTD SVG 20010904//EN"
 "http://www.w3.org/TR/2001/REC-SVG-20010904/DTD/svg10.dtd">
<svg version="1.0" xmlns="http://www.w3.org/2000/svg"
 width="2000.000000pt" height="2000.000000pt" viewBox="0 0 2000.000000 2000.000000"
 preserveAspectRatio="xMidYMid meet">
<metadata>
Created by potrace 1.14, written by Peter Selinger 2001-2017
</metadata>
<g transform="translate(0.000000,2000.000000) scale(0.100000,-0.100000)"
fill="#000000" stroke="none">
<path d="M15340 16795 c-166 -48 -394 -175 -540 -302 -265 -230 -533 -589
-752 -1012 -94 -180 -128 -248 -128 -254 0 -3 -22 -52 -49 -109 -57 -118 -193
-450 -240 -583 -18 -49 -39 -106 -46 -125 -42 -105 -222 -653 -241 -735 -4
-16 -9 -34 -13 -40 -3 -5 -6 -14 -7 -20 -1 -5 -25 -89 -52 -185 -63 -217 -126
-456 -188 -708 l-47 -192 -26 17 c-297 196 -677 406 -946 522 -55 24 -118 51
-140 61 -108 47 -274 108 -395 145 -47 15 -96 30 -110 35 -22 8 -160 46 -200
55 -8 1 -33 8 -55 13 -22 6 -51 13 -65 16 -14 2 -70 14 -125 25 -55 11 -120
22 -145 26 -25 3 -52 8 -60 10 -8 2 -40 6 -70 10 -30 3 -71 8 -90 10 -175 24
-594 36 -746 21 -32 -3 -93 -8 -134 -11 -66 -5 -145 -14 -260 -31 -19 -3 -48
-7 -65 -9 -25 -4 -253 -50 -344 -71 -13 -3 -72 -18 -130 -35 -58 -16 -113 -31
-121 -33 -80 -22 -396 -133 -445 -156 -11 -5 -69 -30 -130 -56 -104 -44 -329
-153 -495 -241 -100 -53 -275 -158 -407 -243 -94 -61 -109 -68 -115 -52 -4 9
-33 109 -63 222 -66 240 -169 592 -227 770 -22 69 -48 152 -58 185 -36 119
-156 458 -248 703 -68 179 -100 258 -145 362 -9 19 -31 71 -50 116 -54 129
-85 195 -198 419 -359 715 -724 1158 -1130 1372 -158 83 -259 106 -339 75 -14
-5 -28 -10 -33 -10 -16 -1 -74 -14 -117 -27 -210 -63 -276 -85 -425 -142 -265
-101 -625 -283 -780 -395 -264 -189 -344 -256 -518 -433 -356 -360 -624 -815
-795 -1345 -44 -137 -57 -183 -101 -370 -29 -121 -38 -167 -46 -220 -2 -14 -6
-38 -9 -55 -2 -16 -7 -48 -11 -70 -3 -23 -7 -52 -10 -65 -7 -38 -24 -176 -30
-260 -4 -41 -8 -91 -10 -110 -4 -30 -17 -266 -17 -295 0 -5 14 -59 32 -120 86
-296 201 -514 351 -665 87 -88 133 -124 212 -165 51 -27 66 -42 129 -135 147
-215 302 -415 468 -604 125 -142 416 -420 534 -511 22 -16 53 -42 70 -56 82
-69 279 -204 425 -291 213 -128 496 -261 728 -343 29 -11 53 -23 53 -27 0 -4
-5 -7 -11 -6 -10 3 -48 -53 -157 -232 -66 -109 -172 -292 -172 -297 0 -3 -8
-17 -18 -31 -11 -15 -43 -72 -72 -127 -30 -55 -65 -120 -78 -145 -183 -338
-380 -780 -497 -1110 -21 -58 -38 -106 -39 -107 -1 -1 -28 9 -61 22 -33 13
-130 48 -215 80 -85 31 -170 63 -188 71 -18 7 -37 14 -43 14 -6 0 -25 6 -42
14 -122 54 -153 59 -205 36 -107 -48 -166 -213 -110 -311 23 -41 45 -53 203
-110 50 -17 124 -44 165 -59 41 -15 95 -35 120 -44 25 -9 54 -20 65 -25 11 -5
56 -22 100 -37 44 -15 84 -30 88 -34 4 -4 -1 -45 -12 -91 -23 -96 -24 -103
-50 -254 -11 -60 -22 -137 -26 -170 -4 -33 -9 -71 -12 -85 -2 -14 -6 -128 -8
-255 -3 -213 0 -284 20 -421 7 -51 7 -52 -21 -58 -16 -3 -63 -8 -104 -11 -41
-3 -86 -8 -100 -10 -14 -2 -61 -7 -105 -10 -81 -7 -133 -11 -215 -20 -25 -2
-76 -7 -115 -10 -38 -3 -86 -8 -105 -10 -19 -2 -66 -7 -105 -11 -38 -4 -79 -8
-90 -9 -130 -13 -197 -200 -109 -305 30 -35 72 -60 106 -61 23 -2 150 8 218
16 47 6 228 23 315 30 39 3 86 8 105 10 19 2 71 7 115 10 44 4 91 8 104 10 13
2 58 7 100 10 42 3 88 8 102 11 23 4 28 1 33 -23 23 -95 115 -305 196 -448 92
-163 264 -379 452 -569 82 -83 145 -153 141 -156 -5 -4 -84 -56 -178 -115 -93
-59 -186 -118 -205 -130 -19 -13 -102 -66 -185 -119 -82 -52 -155 -100 -162
-105 -7 -6 -15 -11 -18 -11 -15 0 -182 -121 -193 -140 -8 -12 -16 -46 -19 -74
-12 -121 62 -238 154 -239 30 -1 57 11 130 59 50 32 125 80 165 105 114 73
681 437 698 449 8 6 38 25 66 44 l51 33 44 -32 c56 -40 358 -235 364 -235 3 0
22 -11 43 -24 71 -44 311 -169 429 -222 224 -101 599 -233 736 -260 10 -2 26
-5 35 -8 67 -20 153 -30 161 -18 5 8 84 -11 251 -59 135 -38 254 -71 265 -73
11 -3 97 -23 190 -46 94 -23 190 -45 215 -50 25 -5 110 -23 190 -40 165 -35
578 -107 690 -120 70 -8 113 -14 185 -25 17 -2 51 -7 78 -10 26 -3 68 -8 95
-11 26 -3 67 -7 92 -9 48 -3 156 -14 205 -20 17 -2 82 -6 145 -10 63 -4 131
-9 150 -10 240 -22 1065 -22 1320 0 19 1 91 6 160 10 69 3 136 8 150 10 14 2
57 7 95 10 39 3 84 7 100 10 17 2 64 7 105 10 41 3 86 8 100 10 14 2 43 6 65
9 209 28 354 49 425 61 47 8 101 17 120 20 110 18 259 45 375 69 11 3 67 14
125 26 106 22 129 26 165 34 11 2 124 30 250 61 127 31 235 58 240 59 12 3 51
14 255 71 85 23 169 43 185 43 17 0 53 6 80 12 28 7 61 14 75 16 14 3 63 14
110 25 47 11 92 22 100 24 89 21 353 108 515 171 234 89 642 317 838 467 37
28 52 35 65 27 9 -5 62 -38 117 -74 55 -35 138 -89 185 -119 47 -30 227 -146
400 -257 173 -112 331 -209 350 -216 87 -31 184 73 189 201 4 104 -12 120
-257 276 -73 46 -215 137 -315 201 -100 64 -228 145 -284 180 -56 35 -103 68
-103 73 0 6 21 31 48 56 247 239 511 616 713 1019 l60 122 72 -7 c40 -3 90 -8
112 -10 22 -3 65 -7 95 -9 111 -10 186 -17 215 -21 17 -2 66 -6 110 -10 44 -3
94 -8 110 -10 17 -2 59 -7 95 -10 36 -3 83 -8 105 -10 182 -17 209 -17 250 7
69 40 106 139 81 212 -35 97 -84 130 -211 142 -44 3 -91 8 -105 10 -14 1 -63
5 -110 9 -47 4 -96 8 -110 10 -14 2 -56 7 -95 10 -38 4 -86 8 -105 11 -19 2
-69 7 -110 10 -41 3 -88 7 -105 9 -16 1 -66 6 -110 10 -44 4 -86 8 -92 8 -8 0
-11 10 -8 26 3 14 9 62 15 106 6 44 13 98 16 120 16 114 4 463 -21 635 -2 14
-7 45 -10 70 -10 73 -15 100 -36 200 -11 52 -23 111 -25 130 l-5 35 353 128
c194 70 364 133 376 140 69 34 91 150 46 243 -29 62 -66 100 -113 120 -28 12
-76 14 -88 4 -2 -2 -6 -3 -10 -4 -8 -1 -64 -22 -98 -36 -11 -5 -121 -46 -245
-91 -124 -45 -247 -90 -275 -100 -27 -11 -53 -19 -57 -19 -3 0 -14 24 -23 53
-31 95 -152 410 -205 532 -177 412 -442 922 -715 1373 -6 9 -23 38 -39 65 -15
26 -32 47 -38 47 -27 0 10 22 67 39 35 11 84 29 109 41 25 11 48 20 51 20 12
0 214 91 305 138 122 63 185 97 190 102 3 3 21 13 40 24 80 42 362 233 417
281 6 5 26 21 44 35 189 143 452 397 683 660 90 102 315 403 401 537 32 48 52
68 98 93 131 71 255 188 349 330 51 78 148 269 148 292 0 8 4 18 9 23 24 27
99 309 96 362 -2 21 -6 85 -10 143 -3 58 -8 119 -10 135 -2 17 -7 64 -10 105
-5 65 -21 195 -30 240 -2 8 -6 35 -9 60 -3 25 -8 54 -10 65 -2 11 -7 43 -11
70 -4 28 -20 105 -36 172 -15 67 -30 132 -33 145 -9 45 -36 143 -45 163 -5 11
-21 61 -36 110 -41 137 -138 373 -223 540 -96 189 -254 436 -337 529 -6 6 -24
30 -42 54 -54 74 -244 271 -353 366 -58 50 -107 93 -110 96 -6 6 -88 67 -185
137 -38 28 -124 83 -190 122 -66 39 -127 75 -135 81 -8 5 -46 24 -85 43 -339
167 -596 264 -940 353 -143 37 -159 38 -225 19z"/>
</g>
</svg>
